<svg xmlns="http://www.w3.org/2000/svg" version="1.1" xmlns:xlink="http://www.w3.org/1999/xlink" xmlns:svgjs="http://svgjs.dev/svgjs" width="2000" height="2000" viewBox="0 0 2000 2000"><g transform="matrix(1,0,0,1,-0.28443113772425477,-0.28443113772459583)"><svg viewBox="0 0 334 334" data-background-color="#000000" preserveAspectRatio="xMidYMid meet" height="2000" width="2000" xmlns="http://www.w3.org/2000/svg" xmlns:xlink="http://www.w3.org/1999/xlink"><g id="tight-bounds" transform="matrix(1,0,0,1,0.04749999999998522,0.04750000000001364)"><svg viewBox="0 0 333.90454557049503 333.90454557049503" height="333.90454557049503" width="333.90454557049503"><rect width="333.905" height="333.905" fill="url(#e2a57893-eca4-47ab-9622-76f0ac8de45d)" mask="url(#343cd1a9-1834-451f-9af3-68f9daf9f0c8)" data-fill-palette-color="tertiary"></rect><g><svg></svg></g><g><svg viewBox="0 0 333.90454557049503 333.90454557049503" height="333.90454557049503" width="333.90454557049503"><g><path d="M0 166.952c0-92.205 74.747-166.952 166.952-166.952 92.205 0 166.952 74.747 166.953 166.952 0 92.205-74.747 166.952-166.953 166.953-92.205 0-166.952-74.747-166.952-166.953zM166.952 316.63c82.665 0 149.677-67.013 149.678-149.678 0-82.665-67.013-149.677-149.678-149.677-82.665 0-149.677 67.013-149.677 149.677 0 82.665 67.013 149.677 149.677 149.678z" data-fill-palette-color="tertiary" fill="url(#e2a57893-eca4-47ab-9622-76f0ac8de45d)" stroke="transparent"></path><ellipse rx="160.27418187383762" ry="160.27418187383762" cx="166.95227278524752" cy="166.95227278524752" fill="url(#e2a57893-eca4-47ab-9622-76f0ac8de45d)" stroke="transparent" stroke-width="0" fill-opacity="1" data-fill-palette-color="tertiary"></ellipse></g><g transform="matrix(1,0,0,1,80.10694154269414,71.17305217166896)"><svg viewBox="0 0 173.69066248510674 191.55844122715712" height="191.55844122715712" width="173.69066248510674"><g><svg viewBox="0 0 173.69066248510674 191.55844122715712" height="191.55844122715712" width="173.69066248510674"><g><svg viewBox="0 0 173.69066248510674 191.55844122715712" height="191.55844122715712" width="173.69066248510674"><g id="textblocktransform"><svg viewBox="0 0 173.69066248510674 191.55844122715712" height="191.55844122715712" width="173.69066248510674" id="textblock"><g><svg viewBox="0 0 173.69066248510674 191.55844122715712" height="191.55844122715712" width="173.69066248510674"><g transform="matrix(1,0,0,1,0,0)"><svg width="173.69066248510674" viewBox="1.130057803468208 -36.1 32.869942196531795 36.25" height="191.55844122715712" data-palette-color="#000000"><path d="M18.65 0.15L18.65 0.15Q15.3 0.15 13.13-1.15 10.95-2.45 9.58-4.9 8.2-7.35 7.1-10.85L7.1-10.85 1.5-28.8Q0.7-31.3 1.63-33.18 2.55-35.05 4.95-35.75L4.95-35.75Q7.15-36.4 8.95-35.48 10.75-34.55 11.4-32.35L11.4-32.35 16.85-15.05Q17.7-12.25 19.03-11.33 20.35-10.4 21.9-10.9L21.9-10.9Q23.5-11.35 23.95-12.73 24.4-14.1 23.7-16.9L23.7-16.9Q22.55-21.9 22.15-24.75 21.75-27.6 21.75-29.25L21.75-29.25Q21.75-32.05 23.28-34.08 24.8-36.1 28-36.1L28-36.1Q31.15-36.1 32.58-34.08 34-32.05 34-29.25L34-29.25Q34-27.6 33.55-25.85 33.1-24.1 32.5-22.25L32.5-22.25 28.05-8.8Q27.15-6.1 26.08-4.08 25-2.05 23.28-0.95 21.55 0.15 18.65 0.15Z" opacity="1" transform="matrix(1,0,0,1,0,0)" fill="#000000" class="wordmark-text-0" data-fill-palette-color="quaternary" id="text-0"></path></svg></g></svg></g></svg></g></svg></g></svg></g></svg></g></svg></g><defs></defs><mask id="343cd1a9-1834-451f-9af3-68f9daf9f0c8"><g id="SvgjsG1042"><svg viewBox="0 0 333.90454557049503 333.90454557049503" height="333.90454557049503" width="333.90454557049503"><g><svg></svg></g><g><svg viewBox="0 0 333.90454557049503 333.90454557049503" height="333.90454557049503" width="333.90454557049503"><g><path d="M0 166.952c0-92.205 74.747-166.952 166.952-166.952 92.205 0 166.952 74.747 166.953 166.952 0 92.205-74.747 166.952-166.953 166.953-92.205 0-166.952-74.747-166.952-166.953zM166.952 316.63c82.665 0 149.677-67.013 149.678-149.678 0-82.665-67.013-149.677-149.678-149.677-82.665 0-149.677 67.013-149.677 149.677 0 82.665 67.013 149.677 149.677 149.678z" fill="white" stroke="transparent"></path><ellipse rx="160.27418187383762" ry="160.27418187383762" cx="166.95227278524752" cy="166.95227278524752" fill="white" stroke="transparent" stroke-width="0" fill-opacity="1"></ellipse></g><g transform="matrix(1,0,0,1,80.10694154269414,71.17305217166896)"><svg viewBox="0 0 173.69066248510674 191.55844122715712" height="191.55844122715712" width="173.69066248510674"><g><svg viewBox="0 0 173.69066248510674 191.55844122715712" height="191.55844122715712" width="173.69066248510674"><g><svg viewBox="0 0 173.69066248510674 191.55844122715712" height="191.55844122715712" width="173.69066248510674"><g id="SvgjsG1041"><svg viewBox="0 0 173.69066248510674 191.55844122715712" height="191.55844122715712" width="173.69066248510674" id="SvgjsSvg1040"><g><svg viewBox="0 0 173.69066248510674 191.55844122715712" height="191.55844122715712" width="173.69066248510674"><g transform="matrix(1,0,0,1,0,0)"><svg width="173.69066248510674" viewBox="1.130057803468208 -36.1 32.869942196531795 36.25" height="191.55844122715712" data-palette-color="#000000"><path d="M18.65 0.15L18.65 0.15Q15.3 0.15 13.13-1.15 10.95-2.45 9.58-4.9 8.2-7.35 7.1-10.85L7.1-10.85 1.5-28.8Q0.7-31.3 1.63-33.18 2.55-35.05 4.95-35.75L4.95-35.75Q7.15-36.4 8.95-35.48 10.75-34.55 11.4-32.35L11.4-32.35 16.85-15.05Q17.7-12.25 19.03-11.33 20.35-10.4 21.9-10.9L21.9-10.9Q23.5-11.35 23.95-12.73 24.4-14.1 23.7-16.9L23.7-16.9Q22.55-21.9 22.15-24.75 21.75-27.6 21.75-29.25L21.75-29.25Q21.75-32.05 23.28-34.08 24.8-36.1 28-36.1L28-36.1Q31.15-36.1 32.58-34.08 34-32.05 34-29.25L34-29.25Q34-27.6 33.55-25.85 33.1-24.1 32.5-22.25L32.5-22.25 28.05-8.8Q27.15-6.1 26.08-4.08 25-2.05 23.28-0.95 21.55 0.15 18.65 0.15Z" opacity="1" transform="matrix(1,0,0,1,0,0)" fill="black" class="wordmark-text-0" id="SvgjsPath1039"></path></svg></g></svg></g></svg></g></svg></g></svg></g></svg></g></svg></g><defs><mask></mask></defs></svg><rect width="333.90454557049503" height="333.90454557049503" fill="black" stroke="none" visibility="hidden"></rect></g></mask><linearGradient x1="0" x2="1" y1="0.578" y2="0.595" id="e2a57893-eca4-47ab-9622-76f0ac8de45d"><stop stop-color="#6ee2f5" offset="0"></stop><stop stop-color="#6454f0" offset="1"></stop></linearGradient></svg><rect width="333.90454557049503" height="333.90454557049503" fill="none" stroke="none" visibility="hidden"></rect></g></svg></g></svg>